<svg xmlns="http://www.w3.org/2000/svg" width="220" height="220" viewBox="0 0 220 220" fill="none">
  <rect width="220" height="220" rx="24" fill="#f4f1f0"/>
  <rect x="18" y="18" width="56" height="56" rx="8" fill="#1f2d3a"/>
  <rect x="146" y="18" width="56" height="56" rx="8" fill="#1f2d3a"/>
  <rect x="18" y="146" width="56" height="56" rx="8" fill="#1f2d3a"/>
  <rect x="92" y="92" width="36" height="36" rx="6" fill="#1f2d3a"/>
  <rect x="146" y="146" width="28" height="28" rx="6" fill="#1f2d3a"/>
  <rect x="182" y="100" width="18" height="18" rx="4" fill="#1f2d3a"/>
  <rect x="110" y="40" width="18" height="18" rx="4" fill="#1f2d3a"/>
  <rect x="74" y="182" width="18" height="18" rx="4" fill="#1f2d3a"/>
  <rect x="70" y="30" width="18" height="18" rx="4" fill="#7f5c58"/>
  <rect x="172" y="80" width="16" height="16" rx="4" fill="#7f5c58"/>
  <rect x="58" y="118" width="16" height="16" rx="4" fill="#7f5c58"/>
  <rect x="132" y="184" width="18" height="18" rx="4" fill="#7f5c58"/>
  <rect x="186" y="140" width="12" height="12" rx="3" fill="#7f5c58"/>
  <rect x="118" y="50" width="12" height="12" rx="3" fill="#7f5c58"/>
</svg>
